<?xml version="1.0" encoding="UTF-8"?>
<svg version="1.1" xmlns="http://www.w3.org/2000/svg" width="926" height="686">
<path d="M0 0 C0.89266571 -0.00067474 1.78533142 -0.00134949 2.70504761 -0.00204468 C16.62160559 0.01464727 30.11189096 0.63250869 43.8125 3.25 C44.7312793 3.41628906 45.65005859 3.58257812 46.59667969 3.75390625 C68.22564513 7.73605468 89.05958692 14.5817226 108.8125 24.25 C109.57868652 24.62350586 110.34487305 24.99701172 111.13427734 25.38183594 C121.88811528 30.68697431 131.97069251 36.70997187 141.859375 43.48828125 C142.86979858 44.16564331 142.86979858 44.16564331 143.90063477 44.85668945 C145.8125 46.25 145.8125 46.25 147.45678711 47.86791992 C149.24544391 49.53454308 150.47736785 50.49774456 152.8125 51.25 C157.12476564 50.51099479 160.90549428 48.73107446 164.875 46.9375 C167.20622415 45.96315188 169.54093473 44.99710711 171.87890625 44.0390625 C173.04437988 43.55856445 174.20985352 43.07806641 175.41064453 42.58300781 C189.24558894 37.16182248 204.10222137 34.12206114 218.8125 32.25 C219.51608643 32.1557373 220.21967285 32.06147461 220.94458008 31.96435547 C258.9857544 27.46810503 297.67884937 33.26946871 332.8125 48.25 C333.62025879 48.59401855 334.42801758 48.93803711 335.26025391 49.29248047 C356.45727592 58.48342695 375.43133434 71.22836606 392.328125 86.953125 C394.46592273 88.9295795 396.646484 90.81554656 398.875 92.6875 C408.07542761 100.72616282 415.63978592 110.41167347 422.8125 120.25 C423.59109375 121.30960937 424.3696875 122.36921875 425.171875 123.4609375 C457.40200862 168.80960301 470.40890573 227.48866335 461.30761719 282.29003906 C453.74874529 323.63537117 436.64244118 361.81335904 407.96484375 392.91015625 C405.84533386 395.21430584 403.79814658 397.56995434 401.75 399.9375 C398.04940005 404.09613098 394.07959657 407.68660006 389.8125 411.25 C388.97460938 411.98734375 388.13671875 412.7246875 387.2734375 413.484375 C368.30022633 429.896464 346.19109849 442.32630783 322.8125 451.25 C322.08627441 451.52827637 321.36004883 451.80655273 320.61181641 452.09326172 C297.15840058 460.89958622 272.15969011 464.68397787 247.1875 464.5625 C246.01161819 464.55976578 246.01161819 464.55976578 244.8119812 464.55697632 C231.95399705 464.5068665 219.44645088 463.80695933 206.8125 461.25 C205.9364209 461.07307617 205.0603418 460.89615234 204.15771484 460.71386719 C194.7651514 458.75306162 185.55184288 456.31075518 176.4375 453.3125 C175.69927002 453.07442627 174.96104004 452.83635254 174.20043945 452.59106445 C170.5741617 451.37232771 167.27577709 450.02422962 163.95703125 448.11328125 C160.25057504 446.05866805 157.10118467 444.67307897 152.8125 444.25 C147.1625533 446.35471931 142.63187334 450.70514003 138.046875 454.49853516 C134.43361388 457.33087074 130.54796121 459.60955823 126.5625 461.875 C125.77649414 462.32319092 124.99048828 462.77138184 124.18066406 463.2331543 C86.12709226 484.54884792 44.78045207 495.46929634 1.1875 495.5 C-0.10740356 495.50101212 -0.10740356 495.50101212 -1.4284668 495.50204468 C-15.85992238 495.48419388 -29.94813437 494.76472197 -44.1875 492.25 C-45.13898926 492.08371094 -46.09047852 491.91742187 -47.07080078 491.74609375 C-79.03026756 485.93821488 -111.11072708 473.81702074 -136.84375 453.6328125 C-137.63982666 453.02042725 -138.43590332 452.40804199 -139.25610352 451.77709961 C-140.79755409 450.58006466 -142.31798138 449.35528426 -143.81225586 448.09985352 C-147.68993501 444.99599705 -147.68993501 444.99599705 -152.4375 444.45239258 C-154.80208595 445.21566105 -156.95467833 446.16240535 -159.1875 447.25 C-160.5202789 447.79554162 -161.85617749 448.33353349 -163.1953125 448.86328125 C-163.85909912 449.13873779 -164.52288574 449.41419434 -165.20678711 449.69799805 C-216.93124948 470.93351356 -277.63726255 469.56430782 -329.0859375 448.25390625 C-351.73987678 438.55577357 -371.74547339 425.49418129 -390.1875 409.25 C-390.68942871 408.81123535 -391.19135742 408.3724707 -391.70849609 407.92041016 C-397.66572846 402.69685593 -403.13592517 397.34710775 -408.1875 391.25 C-408.93386719 390.39148438 -409.68023437 389.53296875 -410.44921875 388.6484375 C-448.02203042 344.88230523 -465.96209283 287.51672496 -461.67407227 230.14208984 C-458.42521434 192.14151629 -445.89888204 154.20412301 -423.1875 123.25 C-422.80239258 122.7250293 -422.41728516 122.20005859 -422.02050781 121.65917969 C-417.08926432 114.98381677 -411.8934054 108.61516972 -406.26171875 102.51171875 C-404.38628414 100.46675333 -402.59717467 98.37380525 -400.8125 96.25 C-368.21151262 59.12933027 -315.42135107 35.51142202 -266.66210938 31.4609375 C-227.87449722 29.10620894 -189.01011842 33.37968889 -153.6027832 50.49975586 C-151.26975824 51.49754082 -151.26975824 51.49754082 -149.36083984 50.55004883 C-148.79574707 50.10685303 -148.2306543 49.66365723 -147.6484375 49.20703125 C-146.66955566 48.47009033 -146.66955566 48.47009033 -145.67089844 47.71826172 C-144.97512695 47.17186035 -144.27935547 46.62545898 -143.5625 46.0625 C-110.25667395 21.31090587 -70.25612909 6.34559541 -29.1875 1.25 C-28.49970459 1.1557373 -27.81190918 1.06147461 -27.10327148 0.96435547 C-18.11410662 -0.12341229 -9.0408948 0.0061369 0 0 Z M-117.71728516 123.81494141 C-119.12892302 125.19282374 -120.56981394 126.54054206 -122.01171875 127.88671875 C-152.47803003 156.96227117 -169.93208198 200.43912173 -171.1875 242.25 C-171.22746094 243.09304688 -171.26742187 243.93609375 -171.30859375 244.8046875 C-171.88691232 266.64471839 -167.6190493 288.77431274 -159.51098633 308.99853516 C-156.03289402 317.73035176 -156.03289402 317.73035176 -156.1875 322.25 C-157.99206974 325.1409864 -160.31811753 327.32393889 -162.8125 329.625 C-163.84322632 330.60835327 -163.84322632 330.60835327 -164.89477539 331.61157227 C-179.12716436 344.91165851 -195.8070616 353.24727455 -214.1875 359.25 C-215.86972656 359.81074219 -215.86972656 359.81074219 -217.5859375 360.3828125 C-218.44445312 360.66898438 -219.30296875 360.95515625 -220.1875 361.25 C-220.44144531 360.43660156 -220.69539062 359.62320312 -220.95703125 358.78515625 C-222.11734045 355.45156949 -223.44082516 352.26685747 -224.85229492 349.03564453 C-250.94815517 289.11920055 -253.83522376 220.56678352 -230.24951172 159.24975586 C-228.63677442 155.2163369 -226.9361325 151.22616823 -225.1875 147.25 C-224.86668457 146.51346191 -224.54586914 145.77692383 -224.21533203 145.01806641 C-219.34252739 133.93856088 -213.49211798 123.57252001 -207.1875 113.25 C-210.50703359 111.03697761 -212.92419652 110.49650432 -216.8125 109.6875 C-218.56433594 109.31431641 -218.56433594 109.31431641 -220.3515625 108.93359375 C-254.88039877 102.7802879 -292.28761172 109.71146607 -321.53515625 129.37109375 C-322.84806641 130.30115234 -322.84806641 130.30115234 -324.1875 131.25 C-325.17621094 131.94222656 -326.16492188 132.63445312 -327.18359375 133.34765625 C-357.19640467 155.35215287 -378.39519049 187.89509416 -384.3972168 224.87475586 C-389.60593741 261.67296215 -381.8341003 299.56619032 -359.625 329.8125 C-355.37479137 335.17178234 -350.88930845 340.28395768 -346.1875 345.25 C-345.35605469 346.14589844 -344.52460938 347.04179688 -343.66796875 347.96484375 C-320.15389478 372.51174674 -285.52296037 387.32922408 -251.65625 388.46875 C-215.43537929 389.24176528 -179.71420314 378.57989251 -152.6875 353.625 C-150.84345112 351.84436408 -149.0094595 350.05323158 -147.1875 348.25 C-146.34058594 347.46367188 -145.49367188 346.67734375 -144.62109375 345.8671875 C-119.0148341 321.58331685 -105.67829029 286.40530956 -104.25952148 251.60498047 C-103.61341314 226.27315294 -109.69450038 201.75147628 -122.37963867 179.83203125 C-125.26092804 174.72281444 -125.26092804 174.72281444 -124.86450195 172.17016602 C-117.3672828 150.90596528 -94.15092445 134.03688882 -76.1875 122.25 C-75.1975 121.59 -74.2075 120.93 -73.1875 120.25 C-72.1975 120.25 -71.2075 120.25 -70.1875 120.25 C-68.56458063 122.15350268 -67.23174313 123.97513942 -65.875 126.0625 C-65.44912598 126.713396 -65.02325195 127.36429199 -64.58447266 128.03491211 C-32.26506112 178.90848422 -21.51041211 238.79823895 -34.58251953 297.67236328 C-43.03733276 333.69573621 -61.09568016 367.12560257 -86.1875 394.25 C-70.64739767 411.33852706 -35.28634942 417.64866542 -13.1875 419.25 C29.74078243 421.03254983 70.46340756 410.81788376 104.8125 384.25 C105.72902344 383.55648438 106.64554688 382.86296875 107.58984375 382.1484375 C143.57702492 353.92941438 165.89696876 312.38495054 171.8125 267.25 C172.30798965 262.58373827 172.62751123 257.93830924 172.8125 253.25 C172.85375 252.40050781 172.895 251.55101562 172.9375 250.67578125 C173.53396611 226.92897442 168.11506926 204.29841691 159.8125 182.25 C159.52133301 181.47188965 159.23016602 180.6937793 158.93017578 179.89208984 C158.22596847 178.0107618 157.51948722 176.13028515 156.8125 174.25 C174.63195786 153.63280118 195.45851961 140.87967319 221.8125 134.25 C222.04582031 135.01441406 222.27914062 135.77882813 222.51953125 136.56640625 C223.90510738 140.51383312 225.52794749 144.30405615 227.18896484 148.14160156 C253.12278873 208.39307023 255.24787066 277.56174319 230.875 338.8125 C225.70610614 351.38777467 219.47787127 363.34113047 212.69360352 375.11230469 C211.14534519 377.80666736 209.79832463 380.29252612 208.8125 383.25 C211.64481547 383.90058529 214.47822201 384.54556713 217.3125 385.1875 C218.10398437 385.36990234 218.89546875 385.55230469 219.7109375 385.74023438 C253.3299056 393.31828046 290.1894472 386.41479739 319.44921875 368.45703125 C328.77305595 362.53232771 336.96623399 356.01561423 344.8125 348.25 C345.65941406 347.46367188 346.50632812 346.67734375 347.37890625 345.8671875 C373.89138014 320.7239024 386.8434206 284.48778069 387.8125 248.5234375 C388.19369537 211.42495941 373.10571698 176.96465396 347.8125 150.25 C346.98105469 149.35410156 346.14960937 148.45820313 345.29296875 147.53515625 C322.0496907 123.27094359 287.57998265 108.1130601 254.0546875 107.03125 C223.27421516 106.40205954 193.25138469 113.24017013 167.8125 131.25 C166.83539062 131.930625 165.85828125 132.61125 164.8515625 133.3125 C149.61611611 144.4475423 136.45515396 158.00041223 126.8125 174.25 C126.37856934 174.97912598 125.94463867 175.70825195 125.49755859 176.45947266 C106.37939353 209.22644891 100.97519209 247.39849604 110.62890625 284.13671875 C113.76617509 295.34881457 118.17160441 305.58870348 124.00463867 315.66796875 C126.8834984 320.77287721 126.8834984 320.77287721 126.50537109 323.31396484 C118.9324029 344.47451375 95.7026455 361.51119393 77.8125 373.25 C76.8225 373.91 75.8325 374.57 74.8125 375.25 C73.8225 375.25 72.8325 375.25 71.8125 375.25 C70.17384366 373.30449103 68.81462668 371.43706757 67.4375 369.3125 C66.79482178 368.32950928 66.79482178 368.32950928 66.13916016 367.32666016 C34.38079338 317.41420387 23.45557587 258.31967019 35.625 200.40625 C43.90666004 163.36260848 62.05976606 129.08884926 87.8125 101.25 C84.13028227 96.79851672 79.37119264 94.77808148 74.25 92.375 C73.31615479 91.93591309 72.38230957 91.49682617 71.42016602 91.04443359 C8.65482038 62.24228479 -68.42030445 75.41050222 -117.71728516 123.81494141 Z " fill="#3ED5A6" transform="translate(462.1875,190.75)"/>
<path d="M0 0 C0.80775879 0.34401855 1.61551758 0.68803711 2.44775391 1.04248047 C23.64477592 10.23342695 42.61883434 22.97836606 59.515625 38.703125 C61.65342273 40.6795795 63.833984 42.56554656 66.0625 44.4375 C75.26292761 52.47616282 82.82728592 62.16167347 90 72 C90.77859375 73.05960937 91.5571875 74.11921875 92.359375 75.2109375 C124.58950862 120.55960301 137.59640573 179.23866335 128.49511719 234.04003906 C120.93624529 275.38537117 103.82994118 313.56335904 75.15234375 344.66015625 C73.03283386 346.96430584 70.98564658 349.31995434 68.9375 351.6875 C65.23690005 355.84613098 61.26709657 359.43660006 57 363 C56.16210938 363.73734375 55.32421875 364.4746875 54.4609375 365.234375 C35.48772633 381.646464 13.37859849 394.07630783 -10 403 C-10.72622559 403.27827637 -11.45245117 403.55655273 -12.20068359 403.84326172 C-35.65409942 412.64958622 -60.65280989 416.43397787 -85.625 416.3125 C-86.80088181 416.30976578 -86.80088181 416.30976578 -88.0005188 416.30697632 C-100.85850295 416.2568665 -113.36604912 415.55695933 -126 413 C-126.8760791 412.82307617 -127.7521582 412.64615234 -128.65478516 412.46386719 C-146.11325873 408.81921018 -162.76522712 403.36045973 -179 396 C-179 395.01 -179 394.02 -179 393 C-177.12109375 391.23046875 -177.12109375 391.23046875 -174.4375 389.1875 C-164.18576301 381.07098896 -154.22923021 372.19184997 -146 362 C-144.98242815 360.77028911 -143.9641197 359.5411876 -142.9453125 358.3125 C-137.45801686 351.65700748 -132.08847566 345.08966554 -127.5625 337.72265625 C-125.4233972 335.36429542 -124.16594793 335.1830802 -121 335 C-118.54724353 335.3680508 -116.10842264 335.83591814 -113.6875 336.375 C-78.63160531 344.08513511 -41.21916142 336.90872256 -11.01782227 317.71655273 C-2.5765882 312.17779433 4.827468 306.09691796 12 299 C12.7734375 298.28714844 13.546875 297.57429688 14.34375 296.83984375 C39.84910597 272.81631304 52.44566787 237.33088192 53.92797852 202.94628906 C54.95455967 164.8479485 39.98740351 129.4900765 14 102 C13.24203125 101.17757812 12.4840625 100.35515625 11.703125 99.5078125 C-11.11958231 75.56634503 -45.87487289 60.84233227 -78.7578125 59.78125 C-109.5319508 59.15218901 -139.56933182 65.98504949 -165 84 C-166.48306641 85.03833984 -166.48306641 85.03833984 -167.99609375 86.09765625 C-198.00020993 108.09577815 -218.48714756 140.9410869 -224.50390625 177.7890625 C-228.50843586 209.11371945 -223.69292118 239.96917881 -207.80786133 267.41796875 C-204.9290016 272.52287721 -204.9290016 272.52287721 -205.30712891 275.06396484 C-211.01969515 291.02613902 -228.25019143 306.70187672 -241.4375 316.625 C-242.14970703 317.1715625 -242.86191406 317.718125 -243.59570312 318.28125 C-247.09204321 320.936055 -250.63944061 323.51470367 -254.28515625 325.9609375 C-254.90398682 326.37907715 -255.52281738 326.7972168 -256.16040039 327.22802734 C-258 328 -258 328 -260.09960938 327.78369141 C-263.23525008 326.49060216 -264.66519118 323.75474486 -266.4375 321 C-266.86144043 320.34918457 -267.28538086 319.69836914 -267.72216797 319.02783203 C-299.86205571 268.33105399 -310.7190801 208.20966908 -297.609375 149.5703125 C-291.35738356 123.19973323 -280.07317964 96.90668885 -264 75 C-263.61489258 74.4750293 -263.22978516 73.95005859 -262.83300781 73.40917969 C-250.83302617 57.16495394 -236.95008826 42.40809939 -221 30 C-219.99453125 29.18917969 -218.9890625 28.37835938 -217.953125 27.54296875 C-210.64787518 21.70371931 -203.03552658 16.74519204 -194.91943359 12.10888672 C-193.02934048 11.01695045 -191.16453253 9.8900995 -189.30078125 8.75390625 C-166.57164519 -4.87590161 -140.19765133 -12.66603153 -114 -16 C-112.94462036 -16.14139404 -112.94462036 -16.14139404 -111.86791992 -16.28564453 C-73.8267456 -20.78189497 -35.13365063 -14.98053129 0 0 Z " fill="#FE6A35" transform="translate(795,239)"/>
<path d="M0 0 C29.9252251 61.99324409 35.76700938 131.35001175 13.02978516 196.79248047 C8.8333749 208.24732002 3.74293543 219.24543927 -2 230 C-2.53560547 231.01320313 -2.53560547 231.01320313 -3.08203125 232.046875 C-8.01775136 241.32533117 -13.4729489 249.73386952 -20 258 C-20.82694824 259.09038324 -21.65109692 260.18289445 -22.47265625 261.27734375 C-26.99952955 267.28978918 -31.6894599 273.07336563 -36.796875 278.609375 C-38.26657468 280.20415551 -39.71472542 281.8190649 -41.140625 283.453125 C-48.62167553 292.01058568 -56.81805488 300.09082106 -66.18359375 306.5859375 C-68.15419851 308.04909905 -68.15419851 308.04909905 -70.203125 310.3046875 C-73.63706678 313.61393307 -77.33505689 316.13955089 -81.3125 318.75 C-82.10793213 319.27440674 -82.90336426 319.79881348 -83.72290039 320.33911133 C-124.9036862 347.19685726 -171.4642619 361.2153748 -220.625 361.25 C-221.91990356 361.25101212 -221.91990356 361.25101212 -223.2409668 361.25204468 C-237.67242238 361.23419388 -251.76063437 360.51472197 -266 358 C-266.95148926 357.83371094 -267.90297852 357.66742187 -268.88330078 357.49609375 C-299.30925503 351.96689459 -328.47936654 340.56895433 -354 323 C-354.79680176 322.45601562 -355.59360352 321.91203125 -356.41455078 321.3515625 C-358.95544082 319.60557965 -361.48064893 317.83939902 -364 316.0625 C-364.79720459 315.5063501 -365.59440918 314.9502002 -366.41577148 314.37719727 C-367.14481689 313.85182373 -367.8738623 313.3264502 -368.625 312.78515625 C-369.27726562 312.31988525 -369.92953125 311.85461426 -370.6015625 311.37524414 C-371.06304687 310.92141357 -371.52453125 310.46758301 -372 310 C-372 309.01 -372 308.02 -372 307 C-371.22474976 306.59442871 -371.22474976 306.59442871 -370.43383789 306.18066406 C-351.30574392 296.10235288 -332.89441626 284.51207718 -317.86328125 268.765625 C-317.12053955 267.99037476 -317.12053955 267.99037476 -316.36279297 267.19946289 C-315.02398374 265.77924269 -313.71213434 264.33374472 -312.40234375 262.88671875 C-310 261 -310 261 -307.6394043 261.23876953 C-304.97874727 262.0061295 -302.80191504 262.98089018 -300.3671875 264.29296875 C-299.04920166 264.98700806 -299.04920166 264.98700806 -297.70458984 265.69506836 C-296.30394287 266.43382202 -296.30394287 266.43382202 -294.875 267.1875 C-255.56992011 287.30062101 -209.09909974 289.23969276 -167.34960938 275.78076172 C-149.08701277 269.71220562 -132.20964758 260.76846481 -117 249 C-116.071875 248.29488281 -115.14375 247.58976563 -114.1875 246.86328125 C-78.65484055 218.92262898 -56.84229482 177.57616349 -51 133 C-50.50451035 128.33373827 -50.18498877 123.68830924 -50 119 C-49.95875 118.15050781 -49.9175 117.30101562 -49.875 116.42578125 C-49.27853389 92.67897442 -54.69743074 70.04841691 -63 48 C-63.29116699 47.22188965 -63.58233398 46.4437793 -63.88232422 45.64208984 C-64.58653153 43.7607618 -65.29301278 41.88028515 -66 40 C-50.62570611 22.15822685 -25.3549713 0 0 0 Z " fill="#4C4B51" transform="translate(684,325)"/>
<path d="M0 0 C0.89266571 -0.00067474 1.78533142 -0.00134949 2.70504761 -0.00204468 C16.62160559 0.01464727 30.11189096 0.63250869 43.8125 3.25 C44.7312793 3.41628906 45.65005859 3.58257812 46.59667969 3.75390625 C68.22564513 7.73605468 89.05958692 14.5817226 108.8125 24.25 C109.96177979 24.81025879 109.96177979 24.81025879 111.13427734 25.38183594 C123.3488156 31.40757447 134.65598568 38.45545622 145.8125 46.25 C146.49505859 46.71067871 147.17761719 47.17135742 147.88085938 47.64599609 C149.56037799 48.79698014 151.19183265 50.01752915 152.8125 51.25 C152.8125 51.91 152.8125 52.57 152.8125 53.25 C151.72453125 53.806875 150.6365625 54.36375 149.515625 54.9375 C140.57636204 59.55974308 132.0132953 64.38415336 123.8125 70.25 C122.86375 70.92417969 121.915 71.59835937 120.9375 72.29296875 C109.49349458 80.64770143 98.55331686 89.94900837 88.8125 100.25 C85.56933424 99.0488275 82.48967423 97.6192259 79.3984375 96.078125 C36.89971381 74.95406147 -9.98102973 71.22814922 -55.1875 86.25 C-78.7234055 94.20086893 -100.07120913 107.49330304 -117.76464844 124.86230469 C-119.0857573 126.15077119 -120.43633671 127.40883046 -121.7890625 128.6640625 C-151.93465938 157.27845446 -168.95208405 201.10527754 -170.1875 242.25 C-170.22746094 243.09304688 -170.26742187 243.93609375 -170.30859375 244.8046875 C-170.88691232 266.64471839 -166.6190493 288.77431274 -158.51098633 308.99853516 C-154.99727555 317.8197726 -154.99727555 317.8197726 -155.1875 322.25 C-157.15373832 325.30907358 -159.6565374 327.66129207 -162.3125 330.125 C-163.04662109 330.82753906 -163.78074219 331.53007813 -164.53710938 332.25390625 C-179.41353409 346.21426318 -199.66700324 358.32290211 -220.1875 361.25 C-249.84777058 299.80563699 -255.35794692 232.35527538 -234.1875 167.25 C-231.81382618 160.45749405 -229.07721353 153.83697114 -226.1875 147.25 C-225.87200195 146.5187793 -225.55650391 145.78755859 -225.23144531 145.03417969 C-218.28712326 129.06583707 -209.38728227 114.37095369 -198.44677734 100.82861328 C-197.15222794 99.20578341 -195.89547426 97.55897221 -194.64453125 95.90234375 C-183.09668744 80.70055533 -169.76244215 65.67787811 -154.0390625 54.69921875 C-152.03912512 53.20517328 -152.03912512 53.20517328 -149.98046875 50.94140625 C-146.54802555 47.63377917 -142.85063232 45.10926066 -138.875 42.5 C-138.07956787 41.97559326 -137.28413574 41.45118652 -136.46459961 40.91088867 C-103.94877279 19.70435271 -67.77252955 6.03744248 -29.1875 1.25 C-28.49970459 1.1557373 -27.81190918 1.06147461 -27.10327148 0.96435547 C-18.11410662 -0.12341229 -9.0408948 0.0061369 0 0 Z " fill="#4C4B51" transform="translate(462.1875,190.75)"/>
<path d="M0 0 C15.40561933 12.81841609 24.98332874 31.33083448 26.87011719 51.2578125 C28.1326725 71.39556968 22.14210613 91.14280775 8.97875977 106.58447266 C-5.45148488 122.80667505 -23.82779523 130.14548479 -45.04003906 132.35253906 C-65.80048237 133.1999041 -84.06481402 124.59572707 -99.38378906 111.29394531 C-112.6650081 98.80607343 -120.53593783 80.48886122 -121.54003906 62.41503906 C-121.78159471 42.60747624 -116.88814236 25.65828193 -104.33691406 10.07128906 C-103.63308594 9.12189453 -103.63308594 9.12189453 -102.91503906 8.15332031 C-93.4172596 -4.05411976 -77.11430487 -12.53035085 -62.10644531 -15.49121094 C-39.52183382 -18.1124301 -18.17775176 -14.27588341 0 0 Z " fill="#4C4B51" transform="translate(510.3369140625,15.9287109375)"/>
<path d="M0 0 C10.83961213 8.61610195 18.80995006 22.8036941 20.79296875 36.44921875 C22.10161894 55.61979604 18.90917399 71.2364928 6.66796875 86.63671875 C-3.35218772 97.37260069 -17.82307209 105.06047975 -32.578125 105.6875 C-50.75172901 106.0882826 -66.51818676 102.40880694 -80.26953125 89.57421875 C-93.73209895 74.80882192 -98.10726743 58.56086612 -97.38183594 38.94189453 C-96.42732316 25.33075567 -89.25918979 11.61442213 -79.20703125 2.44921875 C-55.04171485 -16.98810096 -25.35210111 -17.81377724 0 0 Z " fill="#FF6B35" transform="translate(747.20703125,77.55078125)"/>
<path d="M0 0 C10.83961213 8.61610195 18.80995006 22.8036941 20.79296875 36.44921875 C22.10161894 55.61979604 18.90917399 71.2364928 6.66796875 86.63671875 C-3.35218772 97.37260069 -17.82307209 105.06047975 -32.578125 105.6875 C-50.75172901 106.0882826 -66.51818676 102.40880694 -80.26953125 89.57421875 C-93.73209895 74.80882192 -98.10726743 58.56086612 -97.38183594 38.94189453 C-96.42732316 25.33075567 -89.25918979 11.61442213 -79.20703125 2.44921875 C-55.04171485 -16.98810096 -25.35210111 -17.81377724 0 0 Z " fill="#3ED6A7" transform="translate(255.20703125,77.55078125)"/>
</svg>
